<?xml version="1.0" encoding="UTF-8"?>
<svg id="_Слой_1" data-name="Слой 1" xmlns="http://www.w3.org/2000/svg" width="500.42" height="160" viewBox="0 0 500.42 160">
  <defs>
    <style>
      .cls-1 {
        fill-rule: evenodd;
      }
    </style>
  </defs>
  <path class="cls-1" d="M82.07,159.54c-15.77,0-23.1-2.3-35.84-11.51-8.06,10.36-33.57,18.46-34.69,4.6,0-10.4-2.3-19.19-4.91-28.78-3.11-11.82-6.64-24.98-6.64-44.05C0,34.26,37.37,0,81.65,0s79.04,35.95,79.04,80.23c.15,43.59-35.03,79.08-78.62,79.31ZM82.73,39.37c-21.56-1.11-38.37,13.81-42.09,37.22-3.07,19.38,2.38,42.97,7.02,44.2,2.23.54,7.83-3.99,11.32-7.48,5.77,3.99,12.5,6.38,19.49,6.95,22.34,1.07,41.44-15.94,42.94-38.26.87-22.37-16.33-41.31-38.68-42.59v-.04Z"/>
  <path d="M231.07,122.21h-17.04V41.63h27.74l18.57,55.29h2.49l19.38-55.29h27.13v80.58h-17.07v-59.86h-2.46l-21.1,59.86h-15l-20.14-59.86h-2.49s0,59.86,0,59.86ZM362.64,123.74c-7.56,0-14.31-1.77-20.34-5.26-5.96-3.59-10.83-8.74-14.08-14.89-3.37-6.72-5.07-14.16-4.95-21.68,0-8.06,1.65-15.27,4.99-21.56,3.2-6.19,8.08-11.35,14.08-14.89,6.14-3.64,13.17-5.5,20.3-5.37,6.71,0,12.66,1.42,17.8,4.3,5.18,2.8,9.4,6.22,12.7,10.24l3.72-13.05h13.39v80.58h-13.31l-3.72-13.01c-3.56,4.22-7.88,7.74-12.74,10.36-5.49,2.88-11.61,4.33-17.8,4.22h-.04ZM366.97,107.78c7.56,0,13.62-2.38,18.3-7.14,4.8-5.03,7.36-11.78,7.1-18.72,0-7.67-2.38-13.85-7.1-18.61-4.79-4.92-11.44-7.57-18.3-7.29-7.44,0-13.47,2.42-18.11,7.29-4.76,5-7.28,11.72-6.98,18.61,0,7.64,2.3,13.89,6.98,18.72,4.78,4.8,11.34,7.39,18.11,7.14ZM441.07,122.21h-20.14l25.55-41.25-22.64-39.33h20.18l15,27.09h2.95l15.81-27.09h19.68l-22.64,38.26,25.59,42.32h-20.8l-17.19-30.54h-2.95l-18.42,30.54h0Z"/>
</svg>